# xmcd
#
# Track frame offsets:
#	150
#	51316
#	92566
#	165825
#	197162
#	227372
#	244556
#	296446
#
# Disc length: 4440 seconds
#
# Revision: 0
# Processed by: cddbd v1.5.2PL0 Copyright (c) Steve Scherf et al.
# Submitted via: audiograbber 1.83.01
#
DISCID=5b115608
DTITLE=Grateful Dead - 92-02-22 Oakland Coliseum Arena, Oakland CA
DYEAR=1900
DGENRE=
TTITLE0=Estimated Prophet
TTITLE1=He's Gone
TTITLE2=Drums
TTITLE3=Space
TTITLE4=The Wheel
TTITLE5=All Along The Watchtower
TTITLE6=Black Peter
TTITLE7=Sugar Magnolia
EXTD=
EXTT0=
EXTT1=
EXTT2=
EXTT3=
EXTT4=
EXTT5=
EXTT6=
EXTT7=
PLAYORDER=
